G04 #@! TF.GenerationSoftware,KiCad,Pcbnew,5.1.5+dfsg1-2build2*
G04 #@! TF.CreationDate,2021-03-16T12:31:57-05:00*
G04 #@! TF.ProjectId,TT_GEAR_MOTOR_BRACKET,54545f47-4541-4525-9f4d-4f544f525f42,rev?*
G04 #@! TF.SameCoordinates,Original*
G04 #@! TF.FileFunction,Soldermask,Bot*
G04 #@! TF.FilePolarity,Negative*
%FSLAX46Y46*%
G04 Gerber Fmt 4.6, Leading zero omitted, Abs format (unit mm)*
G04 Created by KiCad (PCBNEW 5.1.5+dfsg1-2build2) date 2021-03-16 12:31:57*
%MOMM*%
%LPD*%
G04 APERTURE LIST*
%ADD10C,0.100000*%
G04 APERTURE END LIST*
D10*
G36*
X87175256Y-68391298D02*
G01*
X87281579Y-68412447D01*
X87582042Y-68536903D01*
X87852451Y-68717585D01*
X88082415Y-68947549D01*
X88263097Y-69217958D01*
X88387553Y-69518421D01*
X88451000Y-69837391D01*
X88451000Y-70162609D01*
X88387553Y-70481579D01*
X88263097Y-70782042D01*
X88082415Y-71052451D01*
X87852451Y-71282415D01*
X87582042Y-71463097D01*
X87281579Y-71587553D01*
X87175256Y-71608702D01*
X86962611Y-71651000D01*
X86637389Y-71651000D01*
X86424744Y-71608702D01*
X86318421Y-71587553D01*
X86017958Y-71463097D01*
X85747549Y-71282415D01*
X85517585Y-71052451D01*
X85336903Y-70782042D01*
X85212447Y-70481579D01*
X85149000Y-70162609D01*
X85149000Y-69837391D01*
X85212447Y-69518421D01*
X85336903Y-69217958D01*
X85517585Y-68947549D01*
X85747549Y-68717585D01*
X86017958Y-68536903D01*
X86318421Y-68412447D01*
X86424744Y-68391298D01*
X86637389Y-68349000D01*
X86962611Y-68349000D01*
X87175256Y-68391298D01*
G37*
G36*
X64429329Y-57080682D02*
G01*
X64839971Y-57162363D01*
X65613604Y-57482812D01*
X66309855Y-57948033D01*
X66901967Y-58540145D01*
X67367188Y-59236396D01*
X67687637Y-60010029D01*
X67851000Y-60831313D01*
X67851000Y-61668687D01*
X67687637Y-62489971D01*
X67367188Y-63263604D01*
X66901967Y-63959855D01*
X66309855Y-64551967D01*
X65613604Y-65017188D01*
X64839971Y-65337637D01*
X64429329Y-65419319D01*
X64018688Y-65501000D01*
X63181312Y-65501000D01*
X62770671Y-65419319D01*
X62360029Y-65337637D01*
X61586396Y-65017188D01*
X60890145Y-64551967D01*
X60298033Y-63959855D01*
X59832812Y-63263604D01*
X59512363Y-62489971D01*
X59349000Y-61668687D01*
X59349000Y-60831313D01*
X59512363Y-60010029D01*
X59832812Y-59236396D01*
X60298033Y-58540145D01*
X60890145Y-57948033D01*
X61586396Y-57482812D01*
X62360029Y-57162363D01*
X62770671Y-57080682D01*
X63181312Y-56999000D01*
X64018688Y-56999000D01*
X64429329Y-57080682D01*
G37*
G36*
X78142007Y-59133582D02*
G01*
X78390226Y-59236398D01*
X78542565Y-59299499D01*
X78903056Y-59540371D01*
X79209629Y-59846944D01*
X79318599Y-60010030D01*
X79450502Y-60207437D01*
X79616418Y-60607993D01*
X79701000Y-61033219D01*
X79701000Y-61466781D01*
X79616418Y-61892007D01*
X79450502Y-62292563D01*
X79450501Y-62292565D01*
X79209629Y-62653056D01*
X78903056Y-62959629D01*
X78542565Y-63200501D01*
X78542564Y-63200502D01*
X78542563Y-63200502D01*
X78142007Y-63366418D01*
X77716781Y-63451000D01*
X77283219Y-63451000D01*
X76857993Y-63366418D01*
X76457437Y-63200502D01*
X76457436Y-63200502D01*
X76457435Y-63200501D01*
X76096944Y-62959629D01*
X75790371Y-62653056D01*
X75549499Y-62292565D01*
X75549498Y-62292563D01*
X75383582Y-61892007D01*
X75299000Y-61466781D01*
X75299000Y-61033219D01*
X75383582Y-60607993D01*
X75549498Y-60207437D01*
X75681401Y-60010030D01*
X75790371Y-59846944D01*
X76096944Y-59540371D01*
X76457435Y-59299499D01*
X76609774Y-59236398D01*
X76857993Y-59133582D01*
X77283219Y-59049000D01*
X77716781Y-59049000D01*
X78142007Y-59133582D01*
G37*
G36*
X52718433Y-59884893D02*
G01*
X52808657Y-59902839D01*
X52914267Y-59946585D01*
X53063621Y-60008449D01*
X53065987Y-60010030D01*
X53293086Y-60161772D01*
X53488228Y-60356914D01*
X53590675Y-60510237D01*
X53641551Y-60586379D01*
X53747161Y-60841344D01*
X53801000Y-61112012D01*
X53801000Y-61387988D01*
X53747161Y-61658656D01*
X53641551Y-61913621D01*
X53641550Y-61913622D01*
X53488228Y-62143086D01*
X53293086Y-62338228D01*
X53139763Y-62440675D01*
X53063621Y-62491551D01*
X52914267Y-62553415D01*
X52808657Y-62597161D01*
X52718433Y-62615107D01*
X52537988Y-62651000D01*
X52262012Y-62651000D01*
X52081567Y-62615107D01*
X51991343Y-62597161D01*
X51885733Y-62553415D01*
X51736379Y-62491551D01*
X51660237Y-62440675D01*
X51506914Y-62338228D01*
X51311772Y-62143086D01*
X51158450Y-61913622D01*
X51158449Y-61913621D01*
X51052839Y-61658656D01*
X50999000Y-61387988D01*
X50999000Y-61112012D01*
X51052839Y-60841344D01*
X51158449Y-60586379D01*
X51209325Y-60510237D01*
X51311772Y-60356914D01*
X51506914Y-60161772D01*
X51734013Y-60010030D01*
X51736379Y-60008449D01*
X51885733Y-59946585D01*
X51991343Y-59902839D01*
X52081567Y-59884893D01*
X52262012Y-59849000D01*
X52537988Y-59849000D01*
X52718433Y-59884893D01*
G37*
G36*
X87175256Y-50891298D02*
G01*
X87281579Y-50912447D01*
X87582042Y-51036903D01*
X87852451Y-51217585D01*
X88082415Y-51447549D01*
X88263097Y-51717958D01*
X88387553Y-52018421D01*
X88451000Y-52337391D01*
X88451000Y-52662609D01*
X88387553Y-52981579D01*
X88263097Y-53282042D01*
X88082415Y-53552451D01*
X87852451Y-53782415D01*
X87582042Y-53963097D01*
X87281579Y-54087553D01*
X87175256Y-54108702D01*
X86962611Y-54151000D01*
X86637389Y-54151000D01*
X86424744Y-54108702D01*
X86318421Y-54087553D01*
X86017958Y-53963097D01*
X85747549Y-53782415D01*
X85517585Y-53552451D01*
X85336903Y-53282042D01*
X85212447Y-52981579D01*
X85149000Y-52662609D01*
X85149000Y-52337391D01*
X85212447Y-52018421D01*
X85336903Y-51717958D01*
X85517585Y-51447549D01*
X85747549Y-51217585D01*
X86017958Y-51036903D01*
X86318421Y-50912447D01*
X86424744Y-50891298D01*
X86637389Y-50849000D01*
X86962611Y-50849000D01*
X87175256Y-50891298D01*
G37*
M02*
